<svg width="894" height="278" viewBox="0 0 894 278" fill="none" xmlns="http://www.w3.org/2000/svg">
<path fill-rule="evenodd" clip-rule="evenodd" d="M616.157 25C616.157 11.1929 627.35 0 641.157 0H869C882.807 0 894 11.1929 894 25V48.5466C894 62.3537 882.807 73.5466 869 73.5466H842.849C839.119 73.5466 837.419 78.2007 840.271 80.6048L885.114 118.411C890.748 123.161 894 130.155 894 137.525V252.843C894 266.65 882.807 277.843 869 277.843H641.157C627.35 277.843 616.157 266.65 616.157 252.843V229.296C616.157 215.489 627.35 204.296 641.157 204.296H795.453C809.26 204.296 820.453 193.103 820.453 179.296V171.528C820.453 164.159 817.202 157.165 811.568 152.414L723.812 78.4298C720.071 75.2762 715.336 73.5466 710.443 73.5466H701.929C695.177 73.5466 689.704 79.02 689.704 85.7718C689.704 89.3756 691.294 92.7957 694.049 95.1186L777.378 165.371C783.081 170.179 779.681 179.487 772.221 179.487H689.375C683.477 179.487 677.769 177.402 673.26 173.601L625.043 132.95C619.409 128.2 616.157 121.206 616.157 113.836V25Z" fill="white"/>
<path fill-rule="evenodd" clip-rule="evenodd" d="M333.079 0C319.272 0 308.079 11.1929 308.079 25V48.5466C308.079 62.3537 319.271 73.5466 333.079 73.5466H482.912C488.81 73.5466 494.517 75.6315 499.026 79.4329L503.489 83.1952C509.123 87.9454 512.375 94.9395 512.375 102.309L512.375 148.032C512.375 155.401 509.123 162.395 503.489 167.145L466.405 198.41C461.896 202.211 456.188 204.296 450.291 204.296H392.65C386.561 204.296 381.625 199.36 381.625 193.271C381.625 190.021 383.059 186.937 385.544 184.842L447.852 132.312C456.407 125.099 451.307 111.137 440.117 111.137H368.221C362.323 111.137 356.616 113.222 352.107 117.023L316.964 146.651C311.33 151.401 308.079 158.395 308.079 165.765V252.843C308.079 266.65 319.271 277.843 333.079 277.843H476.934C482.831 277.843 488.539 275.758 493.048 271.956L577.036 201.149C582.67 196.398 585.921 189.404 585.921 182.035L585.921 68.3056C585.921 60.9362 582.67 53.9421 577.036 49.192L525.669 5.88634C521.16 2.08495 515.453 0 509.555 0H333.079Z" fill="white"/>
<path fill-rule="evenodd" clip-rule="evenodd" d="M73.5466 85.5466C73.5466 78.9192 78.9192 73.5466 85.5466 73.5466L175.651 73.5466C181.548 73.5466 187.256 75.6316 191.765 79.4329L195.41 82.5063C201.045 87.2564 204.296 94.2504 204.296 101.62V154.781C204.296 168.588 215.489 179.781 229.296 179.781H252.703C266.497 179.781 277.684 168.609 277.703 154.816L277.826 67.6381C277.837 60.2563 274.584 53.2472 268.941 48.4891L218.408 5.88633C213.899 2.08495 208.191 7.31501e-06 202.294 7.13496e-06L25 1.72199e-06C11.1929 1.30044e-06 5.64208e-07 11.1929 5.31971e-07 25L0 252.843C-3.22371e-08 266.65 11.1929 277.843 25 277.843H48.5466C62.3537 277.843 73.5466 266.65 73.5466 252.843V216.795C73.5466 210.359 80.7599 206.558 86.0689 210.196L178.395 273.465C182.556 276.317 187.483 277.843 192.527 277.843H261.101C272.543 277.843 277.493 263.351 268.443 256.351L83.2513 113.112C77.1302 108.378 73.5466 101.076 73.5466 93.3374V85.5466Z" fill="white"/>
</svg>
